# Blender v2.79 (sub 0) OBJ File: ''
# www.blender.org
mtllib modularBuildings_026a.mtl
o Mesh1_Group1_Model.001
v 0.000000 0.212500 -1.000000
v 0.000000 0.837500 -1.000000
v 1.000000 0.837500 -1.000000
v 1.000000 0.212500 -1.000000
v 0.000000 0.212500 0.000000
v 0.000000 0.837500 0.000000
v 0.000000 0.212500 -0.725000
v 0.000000 0.212500 -0.625000
v 0.000000 0.712500 -0.625000
v 0.000000 0.712500 -0.375000
v 0.000000 0.212500 -0.375000
v 0.000000 0.212500 -0.275000
v 1.000000 0.212500 0.000000
v 1.000000 0.837500 0.000000
v 1.000000 0.000000 -1.000000
v 1.000000 0.000000 0.000000
v 0.000000 0.000000 -1.000000
v 0.000000 0.000000 -0.825000
v 0.000000 0.106250 -0.825000
v 0.000000 0.106250 -0.725000
v 0.000000 0.000000 0.000000
v 0.000000 0.000000 -0.175000
v -0.200000 0.000000 -0.175000
v -0.200000 0.000000 -0.825000
v 0.000000 0.106250 -0.275000
v 0.000000 0.106250 -0.175000
v -0.100000 0.212500 -0.275000
v -0.100000 0.106250 -0.275000
v -0.100000 0.212500 -0.725000
v -0.100000 0.106250 -0.725000
v 0.100000 0.212500 -0.625000
v 0.100000 0.212500 -0.375000
v 0.100000 0.712500 -0.625000
v 0.100000 0.712500 -0.375000
v -0.200000 0.106250 -0.825000
v -0.200000 0.106250 -0.175000
v -0.060000 0.210000 -0.370000
v -0.010000 0.210000 -0.370000
v -0.010000 0.710000 -0.370000
v -0.060000 0.710000 -0.370000
v -0.060000 0.210000 -0.620000
v -0.010000 0.210000 -0.620000
v -0.060000 0.710000 -0.620000
v -0.010000 0.710000 -0.620000
v -0.060000 0.264236 -0.565764
v -0.060000 0.264236 -0.424236
v -0.060000 0.655764 -0.424236
v -0.060000 0.655764 -0.565764
v -0.035000 0.264236 -0.565764
v -0.035000 0.655764 -0.565764
v -0.035000 0.264236 -0.424236
v -0.035000 0.655764 -0.424236
vt 0.000000 8.366140
vt 0.000000 32.972401
vt -39.370098 32.972401
vt -39.370098 8.366140
vt 0.000000 8.366140
vt 0.000000 32.972401
vt -39.370098 32.972401
vt -39.370098 8.366140
vt -28.543301 8.366140
vt -24.606300 8.366140
vt -24.606300 28.051201
vt -14.763800 28.051201
vt -14.763800 8.366140
vt -10.826800 8.366140
vt 39.370098 8.366140
vt 39.370098 32.972401
vt 39.370098 8.366140
vt 39.370098 32.972401
vt 0.000000 32.972401
vt 0.000000 8.366140
vt -0.000000 39.370098
vt -0.000000 0.000000
vt 39.370098 0.000000
vt 39.370098 39.370098
vt 0.000000 28.051201
vt 0.000000 8.366140
vt 3.937010 8.366140
vt 3.937010 28.051201
vt 0.000000 14.763800
vt 0.000000 24.606300
vt -3.937010 24.606300
vt -3.937010 14.763800
vt 0.000000 8.366140
vt 0.000000 28.051201
vt -3.937010 28.051201
vt -3.937010 8.366140
vt -14.763800 28.051201
vt -24.606300 28.051201
vt -24.606300 8.366140
vt -14.763800 8.366140
vt 39.370098 0.000000
vt 0.000000 0.000000
vt 0.000000 0.000000
vt -39.370098 0.000000
vt -39.370098 0.000000
vt -32.480301 -0.000000
vt -32.480301 4.183070
vt -28.543301 4.183070
vt -39.370098 0.000000
vt 0.000000 0.000000
vt 0.000000 6.889760
vt 7.874020 6.889760
vt 7.874020 32.480301
vt 0.000000 32.480301
vt 0.000000 39.370098
vt -39.370098 39.370098
vt 39.370098 0.000000
vt -10.826800 4.183070
vt -6.889760 4.183070
vt -6.889760 0.000000
vt -3.937010 8.366140
vt -3.937010 4.183070
vt 0.000000 4.183070
vt 0.000000 8.366140
vt -10.826800 8.366140
vt -28.543301 8.366140
vt -28.543301 4.183070
vt -10.826800 4.183070
vt 3.937010 24.606300
vt 0.000000 24.606300
vt 0.000000 28.543301
vt -3.937010 28.543301
vt -3.937010 10.826800
vt 0.000000 10.826800
vt 0.000000 14.763800
vt 3.937010 14.763800
vt 0.000000 8.366140
vt 0.000000 4.183070
vt 3.937010 4.183070
vt 3.937010 8.366140
vt 0.000000 10.826800
vt -3.937010 10.826800
vt -3.937010 28.543301
vt 0.000000 28.543301
vt 0.000000 32.480301
vt -7.874020 32.480301
vt -7.874020 6.889760
vt 0.000000 6.889760
vt 7.874020 4.183070
vt 0.000000 4.183070
vt 0.000000 -0.000000
vt 7.874020 -0.000000
vt -32.480301 -0.000000
vt -6.889760 0.000000
vt -6.889760 4.183070
vt -32.480301 4.183070
vt 0.000000 0.000000
vt 0.000000 4.183070
vt -7.874020 4.183070
vt -7.874020 0.000000
vt 0.000000 0.000000
vt 1.968500 0.000000
vt 1.968500 19.684999
vt 0.000000 19.684999
vt 0.000000 9.842520
vt -1.968500 9.842520
vt -1.968500 0.000000
vt -1.968500 0.000000
vt 0.000000 0.000000
vt 0.000000 19.684999
vt -1.968500 19.684999
vt -9.842520 0.000000
vt -7.707250 2.135270
vt -9.842520 19.684999
vt -2.135270 2.135270
vt -2.135270 17.549801
vt 1.968500 9.842520
vt 0.000000 9.842520
vt 0.000000 0.000000
vt 1.968500 0.000000
vt 0.000000 0.000000
vt 9.842520 0.000000
vt 9.842520 19.684999
vt 0.000000 19.684999
vt -7.707250 17.549801
vt 0.000000 17.549801
vt 0.000000 2.135270
vt 0.984252 2.135270
vt 0.984252 17.549801
vt 0.000000 7.707250
vt 0.000000 2.135270
vt 0.984252 2.135270
vt 0.984252 7.707250
vt 0.000000 17.549801
vt -0.984252 17.549801
vt -0.984252 2.135270
vt 0.000000 2.135270
vt 0.000000 7.707250
vt -0.984252 7.707250
vt -0.984252 2.135270
vt -2.135270 17.549801
vt -7.707250 17.549801
vt -7.707250 2.135270
vt -2.135270 2.135270
vn 0.0000 0.0000 -1.0000
vn -1.0000 0.0000 0.0000
vn 0.0000 -0.0000 1.0000
vn 1.0000 -0.0000 0.0000
vn 0.0000 1.0000 0.0000
vn 0.0000 -1.0000 0.0000
usemtl Brick.001
s 1
f 1/1/1 2/2/1 3/3/1 4/4/1
f 5/5/2 6/6/2 2/7/2 1/8/2 7/9/2 8/10/2 9/11/2 10/12/2 11/13/2 12/14/2
f 13/15/3 14/16/3 6/6/3 5/5/3
f 4/17/4 3/18/4 14/19/4 13/20/4
f 2/21/5 6/22/5 14/23/5 3/24/5
f 9/25/3 8/26/3 31/27/3 33/28/3
f 10/29/6 9/30/6 33/31/6 34/32/6
f 11/33/1 10/34/1 34/35/1 32/36/1
usemtl Glass
f 34/37/2 33/38/2 31/39/2 32/40/2
usemtl Dark_brick
f 15/41/4 4/17/4 13/20/4 16/42/4
f 17/43/1 1/1/1 4/4/1 15/44/1
f 17/45/2 18/46/2 19/47/2 20/48/2 7/9/2 1/8/2
f 16/49/6 21/50/6 22/51/6 23/52/6 24/53/6 18/54/6 17/55/6 15/56/6
f 16/57/3 13/15/3 5/5/3 21/50/3
f 5/5/2 12/14/2 25/58/2 26/59/2 22/60/2 21/50/2
f 27/61/3 28/62/3 25/63/3 12/64/3
f 27/65/2 29/66/2 30/67/2 28/68/2
f 31/69/5 8/70/5 7/71/5 29/72/5 27/73/5 12/74/5 11/75/5 32/76/5
f 7/77/1 20/78/1 30/79/1 29/80/1
f 25/81/5 28/82/5 30/83/5 20/84/5 19/85/5 35/86/5 36/87/5 26/88/5
f 35/89/1 19/90/1 18/91/1 24/92/1
f 24/93/2 23/94/2 36/95/2 35/96/2
f 22/97/3 26/98/3 36/99/3 23/100/3
usemtl Wood
f 37/101/3 38/102/3 39/103/3 40/104/3
f 41/105/6 42/106/6 38/107/6 37/101/6
f 42/108/1 41/109/1 43/110/1 44/111/1
f 41/112/2 45/113/2 43/114/2
f 41/112/2 46/115/2 45/113/2
f 37/101/2 46/115/2 41/112/2
f 46/115/2 37/101/2 47/116/2
f 40/104/2 47/116/2 37/101/2
f 47/116/2 40/104/2 43/114/2
f 44/117/5 43/118/5 40/119/5 39/120/5
f 38/121/4 42/122/4 44/123/4 39/124/4
f 47/116/2 43/114/2 48/125/2
f 48/125/2 43/114/2 45/113/2
f 48/126/3 45/127/3 49/128/3 50/129/3
f 45/130/5 46/131/5 51/132/5 49/133/5
f 46/131/1 47/134/1 52/135/1 51/136/1
f 47/137/6 48/138/6 50/139/6 52/140/6
f 52/141/2 50/142/2 49/143/2 51/144/2
