# Blender v2.79 (sub 0) OBJ File: ''
# www.blender.org
mtllib modularBuildings_038.mtl
o Mesh1_Group1_Model.004
v 0.359692 0.499376 -0.135041
v 0.138721 0.499376 -0.356011
v 0.209431 0.499376 -0.426722
v 0.430403 0.499376 -0.205751
v -0.000793 -0.003124 -0.495526
v 0.138721 -0.003124 -0.356011
v 0.359692 -0.003124 -0.135041
v 0.499207 -0.003124 0.004474
v 0.499207 0.621876 0.004474
v -0.000793 0.621876 -0.495526
v 0.999206 -0.003124 0.004474
v 0.430403 -0.003124 -0.205751
v 0.209431 -0.003124 -0.426722
v -0.000793 -0.003124 -0.995526
v 0.999206 -0.003124 -0.995526
v 0.999206 0.621876 0.004474
v 0.999206 0.621876 -0.995526
v -0.000793 0.621876 -0.995526
v 0.184538 0.500602 -0.354176
v 0.134538 0.500602 -0.354176
v 0.134538 0.500602 -0.104176
v 0.184538 0.500602 -0.104176
v 0.184538 0.000602 -0.354176
v 0.134538 0.000602 -0.354176
v 0.184538 0.000602 -0.104176
v 0.134538 0.000602 -0.104176
v 0.134538 0.446366 -0.158412
v 0.134538 0.446366 -0.299940
v 0.134538 0.250602 -0.299940
v 0.134538 0.250602 -0.158412
v 0.159538 0.446366 -0.158412
v 0.159538 0.250602 -0.158412
v 0.159538 0.446366 -0.299940
v 0.159538 0.250602 -0.299940
vt -14.192300 5.492700
vt -5.492700 14.192300
vt -8.276580 16.976200
vt -16.976200 8.276580
vt -13.919400 0.000000
vt -6.151570 0.000000
vt -6.151570 19.783501
vt 6.151570 19.783501
vt 6.151570 0.000000
vt 13.919400 -0.000000
vt 13.919400 24.606300
vt -13.919400 24.606300
vt -39.370098 -0.000000
vt -19.684999 -0.000000
vt -14.192300 5.492700
vt -16.976200 8.276580
vt -8.276580 16.976200
vt -5.492700 14.192300
vt 0.000000 19.684999
vt 0.000000 39.370098
vt -39.370098 39.370098
vt 19.684999 24.606300
vt 19.684999 0.000000
vt 39.370098 0.000000
vt 39.370098 24.606300
vt 39.370098 0.000000
vt 39.370098 24.606300
vt 0.000000 24.606300
vt 0.000000 0.000000
vt 0.000000 0.000000
vt 0.000000 24.606300
vt -39.370098 24.606300
vt -39.370098 0.000000
vt -39.370098 -0.000000
vt -19.684999 0.000000
vt -19.684999 24.606300
vt -39.370098 24.606300
vt -0.000000 39.370098
vt -0.000000 19.684999
vt 19.684999 0.000000
vt 39.370098 0.000000
vt 39.370098 39.370098
vt -13.919400 0.000000
vt -13.919400 19.783501
vt -17.856400 19.783501
vt -17.856400 0.000000
vt 13.919400 19.783501
vt 13.919400 0.000000
vt 17.856400 0.000000
vt 17.856400 19.783501
vt 6.151570 19.783501
vt -6.151570 19.783501
vt -6.151570 0.000000
vt 6.151570 0.000000
vt -2.135270 17.549801
vt -7.707250 17.549801
vt -7.707250 9.842520
vt -2.135270 9.842520
vt 1.968500 9.842520
vt 0.000000 9.842520
vt 0.000000 0.000000
vt 1.968500 0.000000
vt -1.968500 0.000000
vt 0.000000 0.000000
vt 0.000000 19.684999
vt -1.968500 19.684999
vt 0.000000 9.842520
vt -1.968500 9.842520
vt -1.968500 0.000000
vt 0.000000 0.000000
vt 0.000000 0.000000
vt 9.842520 0.000000
vt 9.842520 19.684999
vt 0.000000 19.684999
vt 1.968500 0.000000
vt 1.968500 19.684999
vt 0.000000 19.684999
vt -7.707250 17.549801
vt -2.135270 17.549801
vt -9.842520 19.684999
vt -9.842520 0.000000
vt -2.135270 9.842520
vt -7.707250 9.842520
vt 0.000000 9.842520
vt 0.000000 17.549801
vt -0.984252 17.549801
vt -0.984252 9.842520
vt 0.000000 2.135270
vt 0.000000 7.707250
vt -0.984252 7.707250
vt -0.984252 2.135270
vt 0.000000 17.549801
vt 0.000000 9.842520
vt 0.984252 9.842520
vt 0.984252 17.549801
vt 0.000000 7.707250
vt 0.000000 2.135270
vt 0.984252 2.135270
vt 0.984252 7.707250
vn 0.0000 -1.0000 0.0000
vn -0.7071 0.0000 0.7071
vn 0.0000 -0.0000 1.0000
vn 1.0000 0.0000 0.0000
vn 0.0000 0.0000 -1.0000
vn -1.0000 0.0000 0.0000
vn -0.0000 1.0000 0.0000
vn -0.7071 0.0000 -0.7071
vn 0.7071 -0.0000 0.7071
usemtl Brick.005
s 1
f 1/1/1 2/2/1 3/3/1 4/4/1
f 5/5/2 6/6/2 2/7/2 1/8/2 7/9/2 8/10/2 9/11/2 10/12/2
f 11/13/1 8/14/1 7/15/1 12/16/1 13/17/1 6/18/1 5/19/1 14/20/1 15/21/1
f 9/22/3 8/23/3 11/24/3 16/25/3
f 15/26/4 17/27/4 16/28/4 11/29/4
f 14/30/5 18/31/5 17/32/5 15/33/5
f 14/34/6 5/35/6 10/36/6 18/37/6
f 18/38/7 10/39/7 9/40/7 16/41/7 17/42/7
f 7/43/8 1/44/8 4/45/8 12/46/8
f 2/47/9 6/48/9 13/49/9 3/50/9
usemtl Glass.004
f 4/51/2 3/52/2 13/53/2 12/54/2
usemtl Glass.002
f 31/55/6 33/56/6 34/57/6 32/58/6
usemtl Metal
f 19/59/7 20/60/7 21/61/7 22/62/7
f 23/63/5 24/64/5 20/65/5 19/66/5
f 24/67/1 23/68/1 25/69/1 26/70/1
f 25/71/4 23/72/4 19/73/4 22/74/4
f 26/70/3 25/75/3 22/76/3 21/77/3
f 28/78/6 27/79/6 21/77/6 20/80/6 24/81/6 26/70/6 30/82/6 29/83/6
f 30/84/5 27/85/5 31/86/5 32/87/5
f 27/88/1 28/89/1 33/90/1 31/91/1
f 28/92/3 29/93/3 34/94/3 33/95/3
f 29/96/7 30/97/7 32/98/7 34/99/7
f 30/82/6 26/70/6 21/77/6 27/79/6
