# Blender v2.79 (sub 0) OBJ File: ''
# www.blender.org
mtllib roadTile_1493.mtl
o Mesh1_Group1_Model.005
v -0.810000 0.216000 0.000000
v -0.810000 0.216000 -0.270000
v -0.810000 0.226800 -0.270000
v -0.810000 0.226800 0.000000
v -0.270000 0.216000 0.000000
v -0.270000 0.216000 -1.080000
v -0.810000 0.216000 -1.080000
v -0.810000 0.216000 -0.810000
v -0.270000 0.226800 0.000000
v -0.270000 0.226800 -1.080000
v -0.945000 0.000000 0.000000
v -0.135000 0.000000 0.000000
v -0.135000 0.198000 0.000000
v -0.135000 0.226800 0.000000
v -0.270000 0.108000 0.000000
v -0.810000 0.108000 0.000000
v -0.945000 0.226800 0.000000
v -0.945000 0.198000 0.000000
v -0.000000 0.000000 -1.080000
v -0.000000 0.000000 -0.000000
v -1.080000 0.000000 0.000000
v -1.080000 0.000000 -0.135000
v -1.080000 0.000000 -0.945000
v -1.080000 0.000000 -1.080000
v -0.945000 0.000000 -1.080000
v -0.135000 0.000000 -1.080000
v 0.000000 0.198000 -0.000000
v -0.000000 0.198000 -1.080000
v -0.135000 0.198000 -1.080000
v -0.945000 0.198000 -1.080000
v -0.945000 0.226800 -1.080000
v -0.810000 0.226800 -1.080000
v -0.810000 0.108000 -1.080000
v -0.270000 0.108000 -1.080000
v -0.135000 0.226800 -1.080000
v -1.080000 0.198000 -1.080000
v -1.080000 0.198000 -0.945000
v -0.945000 0.198000 -0.945000
v -1.080000 0.198000 -0.135000
v -1.080000 0.226800 -0.135000
v -1.080000 0.226800 -0.270000
v -1.080000 0.226800 -0.810000
v -1.080000 0.226800 -0.945000
v -1.080000 0.198000 0.000000
v -0.945000 0.198000 -0.135000
v -0.945000 0.226800 -0.135000
v -0.810000 0.226800 -0.810000
v -0.945000 0.226800 -0.945000
vt -3.000000 0.000000
vt -0.000000 0.000000
vt -0.000000 0.375000
vt -0.000000 2.625000
vt 0.000000 3.000000
vt -0.375000 3.000000
vt -2.625000 3.000000
vt -3.000000 3.000000
vt -3.000000 2.625000
vt -3.000000 0.375000
vt 0.000000 0.550000
vt 3.000000 0.000000
vt 3.000000 0.550000
vt -0.375000 0.550000
vt -0.375000 -0.000000
vt 3.000000 0.000000
vt 3.000000 0.375000
vt 0.000000 0.375000
vt 0.000000 0.000000
vt 0.000000 -0.000000
vt 0.375000 -0.000000
vt 0.375000 0.550000
vt 0.000000 0.550000
vt 3.000000 0.550000
vt 2.625000 0.550000
vt 2.625000 -0.000000
vt 3.000000 -0.000000
vt 3.000000 3.000000
vt 2.625000 3.000000
vt 2.625000 2.625000
vt 3.000000 2.625000
vt -3.000000 0.000000
vt -2.625000 0.000000
vt -2.625000 0.550000
vt -3.000000 0.550000
vt -0.000000 0.550000
vt -0.375000 0.550000
vt -0.375000 0.000000
vt -0.000000 0.000000
vt 0.000000 2.625000
vt 0.375000 2.625000
vt 0.375000 3.000000
vt 0.000000 3.000000
vt -3.000000 -0.000000
vt -2.625000 -0.000000
vt -2.625000 0.550000
vt -3.000000 0.550000
vt 0.000000 0.600000
vt 0.750000 0.600000
vt 0.750000 0.630000
vt 0.000000 0.630000
vt -3.000000 0.600000
vt -0.000000 0.600000
vt -0.000000 0.630000
vt -3.000000 0.630000
vt -0.375000 0.630000
vt -0.750000 0.630000
vt -0.750000 0.600000
vt -0.750000 0.300000
vt -2.250000 0.300000
vt -2.250000 0.600000
vt -2.250000 0.630000
vt -2.625000 0.630000
vt 2.625000 0.630000
vt 2.250000 0.630000
vt 2.250000 0.600000
vt 2.250000 0.300000
vt 0.750000 0.300000
vt 0.750000 0.600000
vt 0.750000 0.630000
vt 0.375000 0.630000
vt -0.375000 0.630000
vt -0.750000 0.630000
vt -2.250000 0.630000
vt -2.625000 0.630000
vt -0.000000 0.630000
vt -0.375000 0.630000
vt -0.375000 0.550000
vt -0.000000 0.550000
vt 0.000000 2.250000
vt 0.750000 2.250000
vt 0.750000 3.000000
vt 0.375000 3.000000
vt 0.375000 2.625000
vt 0.000000 2.625000
vt 2.250000 0.600000
vt 3.000000 0.630000
vt 2.250000 0.630000
vt 2.250000 2.272180
vt 2.250000 3.022780
vt 0.750000 3.022780
vt 0.750000 2.272180
vt -3.000000 0.630000
vt -2.250000 0.600000
vt -2.250000 0.630000
vt 3.000000 0.600000
vt 3.000000 0.630000
vt 2.250000 0.630000
vt 2.250000 0.600000
vt 3.000000 2.625000
vt 2.625000 2.625000
vt 2.625000 3.000000
vt 2.250000 3.000000
vt 2.250000 2.250000
vt 3.000000 2.250000
vt -2.625000 0.630000
vt -3.000000 0.630000
vt -3.000000 0.550000
vt -2.625000 0.550000
vt 3.000000 0.630000
vt 2.625000 0.630000
vt 2.625000 0.550000
vt 3.000000 0.550000
vt -2.625000 0.630000
vt -3.000000 0.630000
vt -3.000000 0.550000
vt -2.625000 0.550000
vt 0.000000 0.750000
vt 0.000000 0.375000
vt 3.000000 0.375000
vt 3.000000 0.750000
vt 3.000000 0.630000
vt 0.000000 0.630000
vt 0.000000 0.550000
vt 3.000000 0.550000
vt 0.000000 0.750000
vt 3.000000 0.750000
vt 3.000000 2.250000
vt 2.250000 2.250000
vt 0.750000 2.250000
vt 0.000000 2.250000
vn -0.0000 -1.0000 0.0000
vn 1.0000 -0.0000 -0.0000
vn 0.0000 -0.0000 1.0000
vn 0.0000 1.0000 -0.0000
vn 0.0000 0.0000 -1.0000
vn -1.0000 0.0000 0.0000
vn 0.0200 0.9998 -0.0000
vn 0.0400 0.9992 0.0000
usemtl Grass.005
s 1
f 19/1/1 20/2/1 12/3/1 11/4/1 21/5/1 22/6/1 23/7/1 24/8/1 25/9/1 26/10/1
f 27/11/2 20/2/2 19/12/2 28/13/2
f 27/11/3 13/14/3 12/15/3 20/2/3
f 28/16/4 29/17/4 13/18/4 27/19/4
f 19/20/5 26/21/5 29/22/5 28/23/5
f 36/24/5 30/25/5 25/26/5 24/27/5
f 36/28/4 37/29/4 38/30/4 30/31/4
f 24/32/6 23/33/6 37/34/6 36/35/6
f 44/36/6 39/37/6 22/38/6 21/39/6
f 18/40/4 45/41/4 39/42/4 44/43/4
f 21/44/3 11/45/3 18/46/3 44/47/3
usemtl Stone.005
f 1/48/2 2/49/2 3/50/2 4/51/2
f 6/52/6 5/53/6 9/54/6 10/55/6
f 11/45/3 12/15/3 13/14/3 14/56/3 9/57/3 5/58/3 15/59/3 16/60/3 1/61/3 4/62/3 17/63/3 18/46/3
f 26/21/5 25/26/5 30/25/5 31/64/5 32/65/5 7/66/5 33/67/5 34/68/5 6/69/5 10/70/5 35/71/5 29/22/5
f 23/33/6 22/38/6 39/37/6 40/72/6 41/73/6 42/74/6 43/75/6 37/34/6
f 17/76/6 46/77/6 45/78/6 18/79/6
f 4/80/4 3/81/4 41/82/4 40/83/4 46/84/4 17/85/4
f 2/86/5 41/87/5 3/88/5
f 8/89/7 42/90/8 41/91/8 2/92/7
f 42/93/3 8/94/3 47/95/3
f 7/96/2 32/97/2 47/98/2 8/99/2
f 31/100/4 48/101/4 43/102/4 42/103/4 47/104/4 32/105/4
f 48/106/6 31/107/6 30/108/6 38/109/6
f 43/110/5 48/111/5 38/112/5 37/113/5
f 46/114/3 40/115/3 39/116/3 45/117/3
f 9/118/4 14/119/4 35/120/4 10/121/4
f 35/122/2 14/123/2 13/124/2 29/125/2
usemtl Asphalt.005
f 5/126/4 6/127/4 7/128/4 8/129/7 2/130/7 1/131/4
f 6/69/5 34/68/5 33/67/5 7/66/5
f 1/61/3 16/60/3 15/59/3 5/58/3
